<svg xmlns="http://www.w3.org/2000/svg" width="25" height="24" fill="none" viewBox="0 0 25 24" id="bilibili"><rect width="24" height="24" x=".463" fill="url(#paint0_linear_302_5217)" rx="8"></rect><path fill="#fff" fill-rule="evenodd" d="M8.74933 5.15976C8.53632 4.94675 8.19095 4.94675 7.97794 5.15976C7.76493 5.37277 7.76493 5.71814 7.97794 5.93115L9.41043 7.36363H6.18182C4.97684 7.36363 4 8.34047 4 9.54545V16.8182C4 18.0232 4.97684 19 6.18182 19H7.45455V19.3636C7.45455 19.6649 7.69876 19.9091 8 19.9091C8.30124 19.9091 8.54545 19.6649 8.54545 19.3636V19H15.4545V19.3636C15.4545 19.6649 15.6988 19.9091 16 19.9091C16.3012 19.9091 16.5455 19.6649 16.5455 19.3636V19H17.8182C19.0232 19 20 18.0232 20 16.8182V9.54545C20 8.34047 19.0232 7.36363 17.8182 7.36363H14.5896L16.022 5.93115C16.2351 5.71814 16.2351 5.37277 16.022 5.15976C15.809 4.94675 15.4637 4.94675 15.2507 5.15976L13.0689 7.34158C13.0617 7.34878 13.0547 7.35614 13.048 7.36363H10.952C10.9453 7.35614 10.9383 7.34878 10.9311 7.34158L8.74933 5.15976ZM5.81818 10.2727C5.81818 9.67023 6.3066 9.18182 6.90909 9.18182H17.0909C17.6934 9.18182 18.1818 9.67023 18.1818 10.2727V16.0909C18.1818 16.6934 17.6934 17.1818 17.0909 17.1818H6.90909C6.3066 17.1818 5.81818 16.6934 5.81818 16.0909V10.2727ZM13.6417 12.4328L16.5508 13.1601L16.9036 11.7489L13.9945 11.0217L13.6417 12.4328ZM10.3582 12.4328L7.44911 13.1601L7.09633 11.7489L10.0054 11.0217L10.3582 12.4328ZM12.4866 15.1623C12.4231 15.1108 12.3765 15.0596 12.3468 15.0225C12.2515 14.9042 12.1757 14.7648 12.1011 14.6276C12.0677 14.5663 12.0345 14.5053 12 14.4469C11.9655 14.5053 11.9324 14.5663 11.899 14.6276C11.8244 14.7648 11.7485 14.9041 11.6532 15.0225C11.6235 15.0596 11.5769 15.1108 11.5134 15.1623C11.3883 15.2636 11.2015 15.3636 10.9393 15.3636C10.8537 15.3636 10.7596 15.307 10.6612 15.1607C10.6164 15.094 10.5823 15.0248 10.5592 14.9708C10.5423 14.9312 10.5299 14.8946 10.5299 14.8946L9.83423 15.1068C9.84994 15.1577 9.86943 15.2075 9.89033 15.2564C9.92551 15.3388 9.98022 15.4514 10.0577 15.5666C10.2039 15.7839 10.4886 16.0909 10.9393 16.0909C11.4043 16.0909 11.7479 15.9084 11.9713 15.7273C11.9811 15.7193 11.9907 15.7114 12 15.7035C12.0094 15.7114 12.0189 15.7193 12.0287 15.7273C12.2521 15.9084 12.5957 16.0909 13.0608 16.0909C13.5114 16.0909 13.7961 15.7839 13.9423 15.5666C14.0198 15.4514 14.0745 15.3388 14.1097 15.2564C14.1306 15.2075 14.1501 15.1577 14.1658 15.1068L13.4701 14.8946C13.4701 14.8946 13.4577 14.9312 13.4409 14.9708C13.4178 15.0248 13.3837 15.094 13.3389 15.1607C13.2404 15.307 13.1464 15.3636 13.0608 15.3636C12.7985 15.3636 12.6117 15.2636 12.4866 15.1623Z" clip-rule="evenodd"></path><defs><linearGradient id="paint0_linear_302_5217" x1=".463" x2="24.463" y1="12" y2="12" gradientUnits="userSpaceOnUse"><stop stop-color="#ED6D6B"></stop><stop offset="1" stop-color="#F0B076"></stop></linearGradient></defs></svg>